<mxfile host="app.diagrams.net" modified="2023-05-13T14:09:15.451Z" agent="Mozilla/5.0 (X11; Linux x86_64) AppleWebKit/537.36 (KHTML, like Gecko) Chrome/113.0.0.0 Safari/537.36" etag="9D1MKxf56Xq7t0YNxc6F" version="21.2.9" type="device">
  <diagram name="Page-1" id="KZ8L7XH27msI2k8S5J8F">
    <mxGraphModel dx="1050" dy="591" grid="1" gridSize="10" guides="1" tooltips="1" connect="1" arrows="1" fold="1" page="1" pageScale="1" pageWidth="827" pageHeight="1169" math="0" shadow="0">
      <root>
        <mxCell id="0" />
        <mxCell id="1" parent="0" />
        <mxCell id="0l7v7ca2Y7C5Ag4sP9y2-13" value="" style="endArrow=classic;html=1;rounded=0;strokeWidth=2;entryX=0.25;entryY=0;entryDx=0;entryDy=0;" edge="1" parent="1" target="0l7v7ca2Y7C5Ag4sP9y2-4">
          <mxGeometry width="50" height="50" relative="1" as="geometry">
            <mxPoint x="370" y="150" as="sourcePoint" />
            <mxPoint x="375" y="280" as="targetPoint" />
          </mxGeometry>
        </mxCell>
        <mxCell id="0l7v7ca2Y7C5Ag4sP9y2-8" value="" style="endArrow=classic;html=1;rounded=0;strokeWidth=2;entryX=0.721;entryY=-0.045;entryDx=0;entryDy=0;entryPerimeter=0;" edge="1" parent="1" target="0l7v7ca2Y7C5Ag4sP9y2-4">
          <mxGeometry width="50" height="50" relative="1" as="geometry">
            <mxPoint x="509" y="150" as="sourcePoint" />
            <mxPoint x="509" y="280" as="targetPoint" />
          </mxGeometry>
        </mxCell>
        <mxCell id="0l7v7ca2Y7C5Ag4sP9y2-5" value="" style="endArrow=classic;html=1;rounded=0;strokeWidth=2;" edge="1" parent="1">
          <mxGeometry width="50" height="50" relative="1" as="geometry">
            <mxPoint x="290" y="215" as="sourcePoint" />
            <mxPoint x="600" y="215" as="targetPoint" />
          </mxGeometry>
        </mxCell>
        <mxCell id="0l7v7ca2Y7C5Ag4sP9y2-9" value="" style="endArrow=classic;html=1;rounded=0;strokeWidth=2;" edge="1" parent="1">
          <mxGeometry width="50" height="50" relative="1" as="geometry">
            <mxPoint x="440" y="330" as="sourcePoint" />
            <mxPoint x="440" y="450" as="targetPoint" />
          </mxGeometry>
        </mxCell>
        <mxCell id="X-p0IP5EF5Zlz0_Dtqi0-10" value="&lt;h1&gt;&lt;font face=&quot;Verdana&quot;&gt;Linear (16 x 5)&lt;/font&gt;&lt;/h1&gt;" style="rounded=1;whiteSpace=wrap;html=1;fillColor=#d5e8d4;strokeColor=#82b366;" parent="1" vertex="1">
          <mxGeometry x="300" y="370" width="290" height="40" as="geometry" />
        </mxCell>
        <mxCell id="X-p0IP5EF5Zlz0_Dtqi0-16" value="&lt;font face=&quot;Verdana&quot; style=&quot;font-size: 24px;&quot;&gt;5x1&lt;/font&gt;" style="text;strokeColor=none;align=center;fillColor=none;html=1;verticalAlign=middle;whiteSpace=wrap;rounded=0;" parent="1" vertex="1">
          <mxGeometry x="384" y="410" width="60" height="30" as="geometry" />
        </mxCell>
        <mxCell id="0l7v7ca2Y7C5Ag4sP9y2-3" value="&lt;font style=&quot;font-size: 18px;&quot; face=&quot;Verdana&quot;&gt;LSTM cell&lt;/font&gt;" style="rounded=1;whiteSpace=wrap;html=1;fillColor=#ffe6cc;strokeColor=#d79b00;" vertex="1" parent="1">
          <mxGeometry x="454" y="180" width="110" height="70" as="geometry" />
        </mxCell>
        <mxCell id="0l7v7ca2Y7C5Ag4sP9y2-4" value="&lt;h1&gt;&lt;font face=&quot;Verdana&quot;&gt;Max Pool&lt;/font&gt;&lt;/h1&gt;" style="rounded=1;whiteSpace=wrap;html=1;fillColor=#e1d5e7;strokeColor=#9673a6;" vertex="1" parent="1">
          <mxGeometry x="300" y="290" width="290" height="40" as="geometry" />
        </mxCell>
        <mxCell id="0l7v7ca2Y7C5Ag4sP9y2-10" value="&lt;font face=&quot;Verdana&quot; style=&quot;font-size: 24px;&quot;&gt;16x1&lt;/font&gt;" style="text;strokeColor=none;align=center;fillColor=none;html=1;verticalAlign=middle;whiteSpace=wrap;rounded=0;" vertex="1" parent="1">
          <mxGeometry x="380" y="330" width="60" height="30" as="geometry" />
        </mxCell>
        <mxCell id="0l7v7ca2Y7C5Ag4sP9y2-1" value="&lt;font style=&quot;font-size: 18px;&quot; face=&quot;Verdana&quot;&gt;LSTM cell&lt;/font&gt;" style="rounded=1;whiteSpace=wrap;html=1;fillColor=#ffe6cc;strokeColor=#d79b00;" vertex="1" parent="1">
          <mxGeometry x="320" y="180" width="110" height="70" as="geometry" />
        </mxCell>
        <mxCell id="0l7v7ca2Y7C5Ag4sP9y2-12" value="&lt;font face=&quot;Verdana&quot; style=&quot;font-size: 24px;&quot;&gt;16x1&lt;/font&gt;" style="text;strokeColor=none;align=center;fillColor=none;html=1;verticalAlign=middle;whiteSpace=wrap;rounded=0;" vertex="1" parent="1">
          <mxGeometry x="444" y="250" width="60" height="30" as="geometry" />
        </mxCell>
        <mxCell id="0l7v7ca2Y7C5Ag4sP9y2-14" value="&lt;font face=&quot;Verdana&quot; style=&quot;font-size: 24px;&quot;&gt;16x1&lt;/font&gt;" style="text;strokeColor=none;align=center;fillColor=none;html=1;verticalAlign=middle;whiteSpace=wrap;rounded=0;" vertex="1" parent="1">
          <mxGeometry x="310" y="250" width="60" height="30" as="geometry" />
        </mxCell>
        <mxCell id="0l7v7ca2Y7C5Ag4sP9y2-15" value="&lt;font face=&quot;Verdana&quot; style=&quot;font-size: 24px;&quot;&gt;16x1&lt;/font&gt;" style="text;strokeColor=none;align=center;fillColor=none;html=1;verticalAlign=middle;whiteSpace=wrap;rounded=0;" vertex="1" parent="1">
          <mxGeometry x="300" y="150" width="60" height="30" as="geometry" />
        </mxCell>
        <mxCell id="0l7v7ca2Y7C5Ag4sP9y2-16" value="&lt;font face=&quot;Verdana&quot; style=&quot;font-size: 24px;&quot;&gt;16x1&lt;/font&gt;" style="text;strokeColor=none;align=center;fillColor=none;html=1;verticalAlign=middle;whiteSpace=wrap;rounded=0;" vertex="1" parent="1">
          <mxGeometry x="444" y="150" width="60" height="30" as="geometry" />
        </mxCell>
      </root>
    </mxGraphModel>
  </diagram>
</mxfile>
